# xmcd
#
# Track frame offsets:
#	150
#	11159
#	21361
#	33888
#	44880
#	56735
#	68524
#	81764
#	93256
#	105603
#
# Disc length: 1577 seconds
#
# Revision: 1
# Processed by: cddbd v1.5.1PL0 Copyright (c) Steve Scherf et al.
# Submitted via: audiograbber 1.83.01
#
DISCID=7d06270a
DTITLE=Darrell Banks - Darrell Banks Is Here!
DYEAR=1967
DGENRE=Soul
TTITLE0=Here Come The Tears
TTITLE1=I've Got That Feelin'
TTITLE2=I'm Gonna Hang My Head and Cry
TTITLE3=Look Into The Eyes Of A Fool
TTITLE4=Our Love (Is In The Pocket)
TTITLE5=Open The Door To Your Heart
TTITLE6=Angel Baby (Don't You Ever Leave Me)
TTITLE7=Somebody (Somewhere Needs You)
TTITLE8=Baby What'cha Got (For Me)
TTITLE9=You Better Go
EXTD=
EXTT0=
EXTT1=
EXTT2=
EXTT3=
EXTT4=
EXTT5=
EXTT6=
EXTT7=
EXTT8=
EXTT9=
PLAYORDER=
